<?xml version="1.0" encoding="UTF-8"?> <svg xmlns="http://www.w3.org/2000/svg" id="Layer_1" viewBox="0 0 33.76 49.5"><defs><style>.cls-1{fill:#fff;}.cls-2{opacity:.2;}</style></defs><g class="cls-2"><path class="cls-1" d="M7.6,5.36c.39,.13,.69,.44,.82,.82h7.2c-.12-2.49-1.33-4.71-3.15-6.18H7.6V5.36Z"></path><path class="cls-1" d="M8.42,25.19c-.13,.38-.44,.69-.82,.82v7.17c4.31-.22,7.78-3.68,8.02-7.99h-7.19Z"></path><path class="cls-1" d="M7.6,16.27v7.23c.39,.13,.69,.44,.82,.82h7.2c-.21-4.33-3.69-7.83-8.02-8.05Z"></path><path class="cls-1" d="M7.6,41.69c.39,.13,.69,.44,.82,.82h7.2c-.21-4.33-3.69-7.83-8.02-8.05v7.23Z"></path><path class="cls-1" d="M24.9,16.27c-4.33,.22-7.81,3.71-8.02,8.05h7.2c.13-.38,.44-.69,.82-.82v-7.22Z"></path><path class="cls-1" d="M6.73,44.2c-.38-.13-.69-.44-.82-.82H0v4.02c.5,.8,1.13,1.51,1.86,2.1H6.73v-5.3Z"></path><path class="cls-1" d="M0,6.18H5.91c.13-.38,.44-.69,.82-.82V0H1.86C1.13,.59,.5,1.3,0,2.1V6.18Z"></path><path class="cls-1" d="M24.07,25.19h-7.19c.23,4.31,3.7,7.77,8.02,7.99v-7.17c-.39-.13-.69-.44-.82-.82Z"></path><path class="cls-1" d="M8.42,7.05c-.13,.38-.44,.69-.82,.82v7.17c4.31-.22,7.78-3.68,8.02-7.99h-7.19Z"></path><path class="cls-1" d="M33.76,25.19h-7.17c-.13,.38-.44,.69-.82,.82v7.17c4.24-.22,7.66-3.57,7.99-7.78v-.21Z"></path><path class="cls-1" d="M15.62,43.38h-7.19c-.13,.38-.44,.69-.82,.82v5.3h4.87c1.81-1.46,3.01-3.65,3.15-6.12Z"></path><path class="cls-1" d="M25.77,16.27v7.22c.38,.13,.69,.44,.82,.82h7.17v-.25c-.32-4.22-3.75-7.58-7.99-7.8Z"></path><path class="cls-1" d="M5.91,42.51c.13-.38,.44-.69,.82-.82v-7.23c-2.84,.14-5.31,1.7-6.73,3.97v4.08H5.91Z"></path><path class="cls-1" d="M5.91,7.05H0v4.02c1.43,2.27,3.89,3.83,6.73,3.97V7.87c-.38-.13-.69-.44-.82-.82Z"></path><path class="cls-1" d="M5.91,24.32c.13-.38,.44-.69,.82-.82v-7.23c-2.84,.14-5.31,1.7-6.73,3.97v4.08H5.91Z"></path><path class="cls-1" d="M5.91,25.19H0v4.02c1.43,2.27,3.89,3.83,6.73,3.97v-7.17c-.38-.13-.69-.44-.82-.82Z"></path></g></svg> 