<?xml version="1.0" encoding="UTF-8"?> <svg xmlns="http://www.w3.org/2000/svg" width="152.003" height="46.638" viewBox="0 0 152.003 46.638"><g id="Group_869" data-name="Group 869" transform="translate(0 0)"><g id="Group_799" data-name="Group 799" transform="translate(121.279 0.001)"><path id="Path_206" data-name="Path 206" d="M159.685,52.567h6.3a1.17,1.17,0,0,1,.72-.72V45.518A7.426,7.426,0,0,0,159.685,52.567Zm6.3.763h-6.3a7.425,7.425,0,0,0,7.02,7V54.05A1.17,1.17,0,0,1,165.989,53.33Zm2.2-.763h6.3a7.424,7.424,0,0,0-7.024-7.049v6.329A1.168,1.168,0,0,1,168.193,52.567Zm-.72,1.483v6.278a7.426,7.426,0,0,0,7.021-7h-6.3A1.168,1.168,0,0,1,167.473,54.05Z" transform="translate(-159.685 -29.631)" fill="#7fba00"></path><g id="Group_798" data-name="Group 798"><path id="Path_207" data-name="Path 207" d="M184.155,53.33h-6.3a7.426,7.426,0,0,0,7.021,7V54.05A1.17,1.17,0,0,1,184.155,53.33Zm1.484.72v6.277a7.426,7.426,0,0,0,7.021-7h-6.3A1.171,1.171,0,0,1,185.639,54.05Zm-7.788-1.484h6.3a1.166,1.166,0,0,1,.72-.72V45.517A7.425,7.425,0,0,0,177.851,52.566Zm8.507,0h6.3a7.424,7.424,0,0,0-7.023-7.049v6.329A1.166,1.166,0,0,1,186.358,52.566Z" transform="translate(-161.937 -29.63)" fill="#5f839c"></path><path id="Path_208" data-name="Path 208" d="M159.685,34.431h6.3a1.17,1.17,0,0,1,.72-.72V27.382A7.426,7.426,0,0,0,159.685,34.431Zm6.3.764h-6.3a7.424,7.424,0,0,0,7.02,7V35.914A1.171,1.171,0,0,1,165.989,35.2Zm1.484.719v6.278a7.425,7.425,0,0,0,7.021-7h-6.3A1.169,1.169,0,0,1,167.473,35.914Zm.72-1.483h6.3a7.425,7.425,0,0,0-7.024-7.049v6.329A1.168,1.168,0,0,1,168.193,34.431Z" transform="translate(-159.685 -27.382)" fill="#5f839c"></path><g id="Group_797" data-name="Group 797" transform="translate(0 31.826)"><path id="Union_7" data-name="Union 7" d="M7.788,8.534a1.171,1.171,0,0,0,.72-.721h6.3a7.425,7.425,0,0,1-7.021,7ZM0,7.812H6.3a1.172,1.172,0,0,0,.721.721V14.81A7.425,7.425,0,0,1,0,7.812Zm8.5-.764a1.171,1.171,0,0,0-.72-.719V0a7.424,7.424,0,0,1,7.023,7.048ZM0,7.048A7.427,7.427,0,0,1,7.024,0V6.329a1.173,1.173,0,0,0-.721.719Z" transform="translate(0)" fill="#5f839c"></path></g></g></g><g id="Group_800" data-name="Group 800" transform="translate(55.822 37.747)"><path id="Path_213" data-name="Path 213" d="M92.3,70.989,89.1,76.02l-3.232-5.032a.47.47,0,0,0-.9.237v7.628a.484.484,0,0,0,.967,0V72.842l2.7,4.211a.506.506,0,0,0,.914,0l2.7-4.224v6.025a.483.483,0,0,0,.966,0V71.226A.478.478,0,0,0,92.3,70.989Zm9.442,7.35H96.511V75.465h4.979a.424.424,0,0,0,0-.848H96.511v-2.98h5.231a.424.424,0,0,0,.013-.847H96.167a.576.576,0,0,0-.61.569v7.27a.578.578,0,0,0,.61.583h5.574A.437.437,0,1,0,101.741,78.338ZM107.3,70.79h-2.886a.589.589,0,0,0-.609.556v7.3a.6.6,0,0,0,.609.569H107.3a4.22,4.22,0,0,0,0-8.422Zm0,7.561h-2.541V71.637H107.3a3.381,3.381,0,0,1,0,6.714Zm5.6-7.388v7.918a.5.5,0,0,0,.993,0V70.962A.5.5,0,0,0,112.905,70.962Zm9.467,6.211a3.361,3.361,0,0,1-1.085.887,3.512,3.512,0,0,1-1.537.383,3.455,3.455,0,0,1-3.376-3.547,3.129,3.129,0,0,1,2.78-3.324,3.376,3.376,0,0,1,3.112.966c.371.4,1.085-.147.689-.6a4.354,4.354,0,0,0-3.946-1.27,4.221,4.221,0,0,0-3.588,4.211,4.369,4.369,0,0,0,4.3,4.476,4.964,4.964,0,0,0,1.985-.477,3.761,3.761,0,0,0,1.431-1.177C123.486,77.213,122.678,76.722,122.373,77.173Zm6.251-6.358a.465.465,0,0,0-.423-.251.473.473,0,0,0-.438.251l-4,7.881c-.237.529.636.874.873.384l1.073-2.093h4.979l1.034,2.053c.251.516,1.231.185.887-.383Zm-2.516,5.338,2.093-4.171,2.079,4.171Zm13.8,2.186h-4.952V71.121a.491.491,0,0,0-.981,0v7.6c0,.318.146.49.5.49h5.43A.442.442,0,1,0,139.906,78.338Z" transform="translate(-84.964 -70.47)" fill="#5f839c"></path></g><g id="Group_802" data-name="Group 802" transform="translate(0 0)"><g id="Group_801" data-name="Group 801"><path id="Path_214" data-name="Path 214" d="M46.562,51.267A12.265,12.265,0,0,1,42.608,54.5a12.776,12.776,0,0,1-5.6,1.4,12.59,12.59,0,0,1-12.3-12.926c0-6.993,4.2-11.19,10.129-12.106,4.243-.483,8.054.047,11.334,3.521,1.351,1.446,3.955-.531,2.508-2.171-3.81-4-8.73-5.4-14.373-4.631a15.372,15.372,0,0,0-13.07,15.338,15.911,15.911,0,0,0,15.675,16.3,18.073,18.073,0,0,0,7.235-1.737A13.711,13.711,0,0,0,49.36,53.2C50.614,51.411,47.672,49.627,46.562,51.267Zm6.052-13V57.579c0,1.844,3.132,1.887,3.132,0V38.227C55.746,36.381,52.614,36.425,52.614,38.27Zm17.034-1.5c-2.446,0-5.02.773-6.394,3.647V38.27c0-2.06-3.046-1.889-3.046,0V57.278a1.466,1.466,0,0,0,1.587,1.5,1.5,1.5,0,0,0,1.544-1.5v-9.7c0-4.335,1.889-7.853,6.308-7.853.986,0,1.629-.515,1.629-1.459A1.435,1.435,0,0,0,69.648,36.768Zm15.7,18.923a4.83,4.83,0,0,1-2.017.472c-2.918,0-3.3-2.575-3.3-5.02V39.557h4.676a1.354,1.354,0,1,0,0-2.7H80.032V31.876a1.545,1.545,0,0,0-3.09,0v4.978H74.11a1.356,1.356,0,1,0,0,2.7h2.832V51.142c0,4.076,1.244,7.852,6.393,7.852a6.425,6.425,0,0,0,3.3-.729A1.448,1.448,0,1,0,85.352,55.69Zm25.314-7.981c-.086-5.493-3.089-9.44-7.938-10.771h-.043a12.139,12.139,0,0,0-6.436,0c-7.981,2.232-10,12.1-5.364,18.193A11.1,11.1,0,0,0,99.6,58.951a10.951,10.951,0,0,0,7.637-2.573c1.673-1.718-.557-3.477-2.06-2.1a9.3,9.3,0,0,1-5.706,1.8,7.7,7.7,0,0,1-7.853-6.437h16.948c1.76,0,2.188-1.029,2.1-1.974Zm-19.18-.687a7.711,7.711,0,0,1,5.706-7.252,8.935,8.935,0,0,1,4.634-.043h-.042a7.868,7.868,0,0,1,5.878,7.295ZM131,53.5a7.589,7.589,0,0,1-6.265,2.832,8.01,8.01,0,0,1-6.179-2.832,9.053,9.053,0,0,1-1.845-5.663c0-4.892,3.176-8.711,7.852-8.711a7.661,7.661,0,0,1,5.965,2.618c1.2,1.416,3.518-.386,2.274-1.8a9.836,9.836,0,0,0-7.895-3.648c-6.523,0-11.029,4.335-11.371,10.685a12.351,12.351,0,0,0,2.531,8.41,11.451,11.451,0,0,0,8.624,3.819,10.893,10.893,0,0,0,8.5-3.819A1.446,1.446,0,1,0,131,53.5Z" transform="translate(-21.242 -27.381)" fill="#3044b5"></path></g><circle id="Ellipse_124" data-name="Ellipse 124" cx="1.807" cy="1.807" r="1.807" transform="translate(31.151 2.748)" fill="#7fba00"></circle></g></g></svg> 