<?xml version="1.0" encoding="UTF-8"?> <svg xmlns="http://www.w3.org/2000/svg" id="Layer_2" viewBox="0 0 233.97 80.54"><defs><style>.cls-1{fill:none;}.cls-2{fill:#fff;}.cls-3{fill:#65665d;}.cls-4{fill:#8bc540;}.cls-5{fill:#b51f33;}.cls-6{fill:#231f20;}.cls-7{fill:#065da9;}.cls-8{fill:#284195;}</style></defs><g id="Layer_1-2"><g><path class="cls-3" d="M118.77,52.73l-.84,1.64c-.19,.38-.87,.11-.68-.3l3.13-6.17c.06-.13,.21-.2,.34-.2s.26,.06,.33,.2l3.12,6.14c.27,.45-.5,.7-.69,.3l-.81-1.61h-3.9Zm1.95-3.92l-1.64,3.26h3.26l-1.63-3.26Z"></path><path class="cls-7" d="M132.19,54.21c-.5,.23-1.06,.37-1.55,.37-1.77,0-3.37-1.45-3.37-3.5,0-1.7,1.21-3.05,2.81-3.3,1.21-.17,2.27,.13,3.09,.99,.31,.35-.25,.78-.54,.47-.7-.75-1.52-.86-2.44-.76-1.27,.2-2.18,1.1-2.18,2.6s1.21,2.78,2.64,2.78c.38,0,.81-.1,1.2-.3,.32-.17,.63-.41,.85-.69,.24-.35,.87,.03,.6,.41-.28,.39-.67,.7-1.12,.92Z"></path><path class="cls-7" d="M134,50.08c0-.4,.67-.41,.67,0v4.16c0,.41-.67,.4-.67,0v-4.15Z"></path><path class="cls-7" d="M136.31,50.54c.3-.62,.85-.78,1.38-.78,.21,0,.35,.11,.35,.32s-.14,.31-.35,.31c-.95,0-1.36,.76-1.36,1.69v2.09c0,.19-.16,.32-.33,.32-.2,0-.34-.13-.34-.32v-4.09c0-.41,.66-.44,.66,0v.46Z"></path><path class="cls-7" d="M140.92,49.78c.42,0,.42,.58,0,.58h-1.01v2.49c0,.53,.08,1.08,.71,1.08,.14,0,.34-.05,.43-.1,.39-.22,.69,.32,.28,.55-.23,.13-.46,.16-.71,.16-1.11,0-1.38-.81-1.38-1.69v-2.49h-.61c-.43,0-.41-.58,0-.58h.61v-1.07c0-.44,.66-.43,.66,0v1.07h1.01Z"></path><path class="cls-7" d="M144.83,49.79c1.04,.29,1.69,1.14,1.71,2.32h0c.02,.19-.07,.42-.45,.42h-3.65c.12,.76,.77,1.38,1.69,1.38,.42,0,.87-.11,1.23-.39,.32-.3,.8,.08,.44,.45-.42,.4-1.04,.56-1.64,.55-.72,0-1.44-.28-1.87-.82-1-1.31-.56-3.43,1.15-3.91,.43-.13,.93-.12,1.38,0h0Zm-2.42,2.17h3.48c-.06-.78-.54-1.38-1.26-1.57h0c-.3-.08-.68-.08-1,0-.74,.19-1.17,.81-1.23,1.56Z"></path><path class="cls-7" d="M149.55,50.26c-1.01,0-1.69,.82-1.69,1.87,0,.42,.12,.89,.4,1.22,.32,.4,.83,.61,1.33,.61s1.02-.17,1.35-.61c.23-.31,.78,.05,.47,.41-.45,.55-1.14,.82-1.83,.82s-1.39-.29-1.86-.82c-.39-.48-.58-1.14-.54-1.81,.07-1.37,1.04-2.3,2.45-2.3,.66,0,1.2,.22,1.7,.78,.27,.3-.23,.69-.49,.39-.35-.41-.82-.56-1.28-.56Z"></path><path class="cls-3" d="M159.66,54.21c-.5,.23-1.06,.37-1.55,.37-1.77,0-3.37-1.45-3.37-3.5,0-1.7,1.21-3.05,2.81-3.3,1.21-.17,2.27,.13,3.09,.99,.31,.35-.25,.78-.54,.47-.7-.75-1.52-.86-2.44-.76-1.27,.2-2.18,1.1-2.18,2.6s1.21,2.78,2.64,2.78c.38,0,.81-.1,1.2-.3,.32-.17,.63-.41,.85-.69,.24-.35,.87,.03,.6,.41-.28,.39-.67,.7-1.12,.92Z"></path><path class="cls-3" d="M161.94,53.73c-.42-.49-.59-1.08-.56-1.77,.09-1.02,.69-1.88,1.71-2.17,.22-.06,.47-.08,.7-.08s.44,.02,.68,.08c1.01,.29,1.63,1.14,1.72,2.17,.04,.69-.15,1.28-.55,1.77-.45,.54-1.12,.83-1.85,.83s-1.39-.29-1.85-.83Zm1.84-3.4c-.18,0-.35,.03-.49,.06-.78,.2-1.23,.92-1.23,1.75,0,.42,.13,.85,.41,1.17,.32,.39,.81,.61,1.32,.61s1.01-.24,1.33-.61c.26-.31,.41-.76,.41-1.15,0-.84-.45-1.57-1.24-1.77-.15-.04-.33-.06-.51-.06Z"></path><path class="cls-3" d="M174.4,51.76c-.02-.79-.66-1.37-1.43-1.37-.97,0-1.74,.72-1.74,1.78v2.03c0,.2-.14,.32-.34,.32s-.34-.12-.34-.32v-2.29c0-.53-.21-1.03-.64-1.3-.24-.15-.51-.21-.79-.21-.9,0-1.73,.69-1.73,1.73v2.08c0,.42-.67,.42-.67,0v-4.13c0-.18,.15-.32,.33-.32,.2,0,.32,.15,.32,.32v.64c.37-.66,1.02-.96,1.74-.96,.8,0,1.6,.4,1.87,1.22,.33-.82,1.14-1.22,1.96-1.22,1.06,0,2.13,.71,2.13,1.98v2.47c0,.2-.14,.32-.34,.32s-.33-.12-.33-.32v-2.45Z"></path><path class="cls-3" d="M178.11,54.57c-.62,0-1.22-.25-1.5-.74v1.98c0,.42-.67,.42-.67,0v-5.73c0-.2,.13-.32,.34-.32s.31,.12,.31,.32v.43c.31-.57,.96-.81,1.51-.81,.29,0,.6,.06,.89,.18h0c1.01,.41,1.51,1.32,1.49,2.39-.04,1.31-.98,2.3-2.36,2.3Zm-1.5-2.79v.73c0,.81,.63,1.38,1.47,1.42,.66,0,1.31-.35,1.58-.99,.07-.19,.13-.44,.14-.68,0-.6-.18-1.15-.68-1.57-.27-.21-.6-.32-.95-.35-.84,0-1.55,.54-1.55,1.44Z"></path><path class="cls-3" d="M182.36,49.9c.3-.14,.64-.18,.99-.18,.53,0,1.13,.18,1.46,.72v-.35c0-.19,.12-.33,.33-.33s.34,.14,.34,.33v4.1c0,.2-.14,.33-.34,.33s-.33-.13-.33-.33v-.44c-.27,.54-.95,.84-1.5,.84-.44,0-.94-.12-1.33-.4-.7-.48-1.06-1.26-1.03-2.17,.02-.93,.54-1.79,1.42-2.13h0Zm2.45,2.62v-.73c0-.91-.64-1.38-1.47-1.42-.66,0-1.32,.34-1.58,.99-.08,.19-.13,.44-.14,.68-.02,.6,.18,1.15,.67,1.57,.28,.21,.61,.32,.95,.35,.85,0,1.51-.52,1.56-1.44Z"></path><path class="cls-3" d="M190.22,51.76c0-.85-.68-1.44-1.43-1.44-.9,0-1.74,.74-1.74,1.74v2.14c0,.2-.12,.32-.33,.32s-.35-.12-.35-.32v-4.14c0-.42,.66-.43,.66,0v.57c.33-.67,1.04-.96,1.76-.96,1.07,0,2.1,.74,2.1,2.07v2.45c0,.2-.12,.32-.33,.32s-.34-.12-.34-.32v-2.45Z"></path><path class="cls-3" d="M191.23,50.17c-.17-.37,.44-.68,.63-.27l1.78,3.56,1.76-3.57c.17-.36,.78-.14,.63,.25l-2.96,5.89c-.22,.43-.8,.2-.63-.23l.81-1.65-2.02-3.98Z"></path><circle class="cls-4" cx="134.35" cy="48.74" r=".39"></circle></g><g><polygon class="cls-1" points="125.79 .52 125.79 .52 125.79 .52 125.79 .52"></polygon><path class="cls-8" d="M125.75,.71l.04-.19h0l-2.97-.18-5.1-.23-5.14-.11h-5.13l-5.14,.04-5.09,.19-5.1,.23-5.02,.34-5.02,.42-4.95,.49-4.87,.6-4.8,.64-4.68,.76-4.61,.87-4.49,.91-4.34,.98-4.23,1.06-4.08,1.13-3.97,1.21-3.78,1.29-3.59,1.36-3.44,1.4-3.25,1.47-3.06,1.51-2.84,1.55-2.69,1.63-2.42,1.67-2.23,1.7-2.04,1.74-1.78,1.74-1.56,1.82-1.33,1.82-1.07,1.87-.88,1.86-.61,1.91-.38,1.91L0,40.03h0l.11,1.91,.38,1.91,.61,1.87,.84,1.91,1.11,1.83,1.33,1.86,1.56,1.79,1.78,1.78,2.02,1.75,2.24,1.7,2.46,1.66,2.65,1.63,2.87,1.59,3.02,1.51,3.25,1.47,3.44,1.4,3.63,1.32,3.78,1.28,3.93,1.21,4.08,1.17,4.23,1.06,4.34,1.02,4.49,.91,4.61,.83,4.68,.76,4.79,.68,4.87,.6,4.95,.53,4.98,.42,5.06,.34,5.1,.23,5.1,.15h7.74l.03-.24-2.63-.09-1.46-.02-2.28-.15-5.02-.41-4.94-.53-4.87-.6-4.75-.68-4.72-.75-4.6-.83-4.45-.91-4.38-1.02-4.23-1.06-4.07-1.13-3.92-1.24-3.77-1.24-3.58-1.36-3.43-1.4-3.24-1.47-3.06-1.51-2.87-1.58-2.64-1.62-2.45-1.66-2.23-1.7-2-1.74-1.77-1.77-1.55-1.77-1.32-1.81-1.06-1.85-.87-1.89-.6-1.85-.34-1.89-.11-1.89,.11-1.89,.38-1.89,.6-1.85,.83-1.89,1.09-1.85,1.32-1.81,1.55-1.77,1.77-1.77,2-1.74,2.23-1.7,2.45-1.66,2.64-1.62,2.87-1.55,3.06-1.51,3.24-1.47,3.4-1.4,3.62-1.36,3.77-1.24,3.92-1.21,4.07-1.17,4.23-1.06,4.38-.98,4.49-.91,4.56-.87,4.72-.75,4.79-.64,4.87-.6,4.9-.49,5.02-.41,5.06-.34,5.06-.23,2.39-.07c5.67-.22,8.55-.1,9.53-.03v-.03h0ZM29.66,17.96l-1.74,.91-1.66,.95-1.59,.95-1.52,.95-1.4,.95-1.37,.99-1.25,.99-1.21,1.02-1.09,.98-1.04,1.04-.95,1.03-.88,1.03-.8,1.03-.72,1.02-.62,1.04-.54,1.03-.46,1.07-.38,1.03-.31,1.04-.2,1.05-.15,.98-.04,1.06,.04,1.03,.12,1.05,.15,1.02,.31,1.06,.34,1.02,.42,1.07,.5,1.04,.61,1.04,.69,1.04,.76,1.03,.84,1.03,.91,1.03,.98,1.02,1.11,1,1.18,1.03,1.25,.99,1.33,.99,1.41,.99,1.48,.95,1.59,.95,3.32,1.85c10.44,5.12,22.66,8.8,34.31,11.43l2.95,.61-.1,.02c16.16,3.44,30.8,4.89,37.43,5.41l-1.38-.02-5.09-.15-5.09-.23-5.05-.34-4.98-.41-4.94-.53-2.82-.35c-5.05-.69-9.69-1.51-13.93-2.39h-.05l-.58-.1c-3.22-.63-6.42-1.39-9.59-2.27l-4.59-1.36-4.37-1.47-.67-.25c-11.02-3.88-16.11-7.39-16.11-7.39l-1.58-.94-1.46-.94-1.43-.98-1.35-.97-1.28-1.01-1.2-1.01-1.12-1.05-1.05-1.05-1.01-1.05-.89-1.08-.82-1.09-.79-1.13-.67-1.08-.59-1.15-.52-1.12-.45-1.15-.33-1.15-.3-1.16-.19-1.15-.11-1.15v-1.19l.07-1.15,.15-1.19,.22-1.15,.33-1.15,.41-1.15,.48-1.11,.56-1.16,.67-1.08,.71-1.12,.82-1.08,.9-1.09,.94-1.09,1.04-1.04,1.09-1.01,1.2-1.05,1.24-1.01,1.31-.98,1.39-.98,1.46-.98,1.54-.94,1.58-.94,1.66-.9,1.73-.9,1.77-.86,.17-.08,1.03,2.24-2.11,1.01Zm3.77-1.78l-1.01-2.21,1.69-.76,.96,2.25-1.63,.72Z"></path><path class="cls-6" d="M196.06,45.31c0-.17-.14-.31-.31-.31H38.82c-.17,0-.31,.14-.31,.31s.14,.31,.31,.31H195.75c.17,0,.31-.14,.31-.31Z"></path><path class="cls-2" d="M30.57,14.79l-1.77,.86-1.73,.9-1.66,.9-1.58,.94-1.54,.94-1.46,.98-1.39,.98-1.31,.98-1.24,1.01-1.2,1.05-1.09,1.01-1.04,1.04-.94,1.09-.9,1.09-.82,1.08-.71,1.12-.67,1.08-.56,1.16-.48,1.11-.41,1.15-.33,1.15-.22,1.15-.15,1.19-.07,1.15v1.19l.11,1.15,.19,1.15,.3,1.16,.33,1.15,.45,1.15,.52,1.12,.59,1.15,.67,1.08,.79,1.13,.82,1.09,.89,1.08,1.01,1.05,1.05,1.05,1.12,1.05,1.2,1.01,1.28,1.01,1.35,.97,1.43,.98,1.46,.94,1.58,.94s5.09,3.51,16.11,7.39l.67,.25,4.37,1.47,4.59,1.36c3.16,.88,6.36,1.64,9.59,2.27l.58,.11h.05c4.24,.88,8.88,1.69,13.93,2.38l2.82,.35,4.94,.53,4.98,.41,5.05,.34,5.09,.23,5.09,.15,1.38,.02c-6.63-.52-21.27-1.97-37.43-5.41l.1-.02-2.95-.61c-11.64-2.63-23.86-6.31-34.31-11.43l-3.32-1.85-1.59-.95-1.48-.95-1.41-.99-1.33-.99-1.25-.99-1.18-1.03-1.11-1-.98-1.02-.91-1.03-.84-1.03-.76-1.03-.69-1.04-.61-1.04-.5-1.04-.42-1.07-.34-1.02-.31-1.06-.15-1.02-.12-1.05-.04-1.03,.04-1.06,.15-.98,.2-1.05,.31-1.04,.38-1.03,.46-1.07,.54-1.03,.62-1.04,.72-1.02,.8-1.03,.88-1.03,.95-1.03,1.04-1.04,1.09-.98,1.21-1.02,1.25-.99,1.37-.99,1.4-.95,1.52-.95,1.59-.95,1.66-.95,1.74-.91,2.11-1.01-1.03-2.24-.17,.08Z"></path><polygon class="cls-2" points="32.4 13.96 33.42 16.18 35.04 15.46 34.09 13.2 32.4 13.96"></polygon><path class="cls-5" d="M233.71,37.72l-.49-1.86-.72-1.9-.95-1.86-1.22-1.87-1.44-1.82-1.67-1.78-1.89-1.74-2.12-1.74-2.34-1.66-2.53-1.66-2.76-1.59-2.99-1.55-3.14-1.47-3.36-1.43-3.51-1.4-3.66-1.32-3.89-1.25-4-1.17-4.15-1.09-4.3-1.06-4.42-.94-4.53-.87-4.64-.79-4.76-.76-4.83-.6-4.91-.57-4.94-.45-5.02-.38-5.1-.3-5.09-.19-5.1-.11-3.47-.03,.04,.02h0l-.04,.19h0v.06h.9l1.21,.08,5.02,.38,4.98,.45,4.9,.57,4.83,.6,4.75,.72,4.64,.83,4.53,.87,4.41,.94,4.3,1.06,4.15,1.09,4,1.17,3.85,1.24,3.7,1.32,3.51,1.4,3.32,1.43,3.17,1.47,2.94,1.55,2.75,1.58,2.57,1.62,2.3,1.7,2.11,1.74,1.92,1.74,1.66,1.77,1.43,1.81,1.17,1.85,.98,1.85,.72,1.85,.49,1.89,.23,1.89v1.89l-.23,1.89-.49,1.89-.72,1.85-.98,1.85-1.21,1.85-1.43,1.81-1.66,1.77-1.89,1.74-2.11,1.74-2.34,1.66-2.53,1.66-2.75,1.58-2.98,1.55-3.13,1.47-3.36,1.43-3.51,1.36-3.7,1.32-3.85,1.24-4,1.17-4.15,1.09-4.3,1.02-4.41,.98-4.53,.87-4.68,.79-4.72,.72-4.83,.6-4.9,.57-4.98,.45-5.02,.38-5.06,.3-5.09,.19-5.09,.11-2.54-.11v.09l-.02,.05-.02,.1,3.77,.19,5.13,.15,5.09,.08h5.13l5.13-.11,5.1-.19,5.06-.3,5.02-.38,4.98-.45,4.91-.53,4.83-.64,4.76-.72,4.64-.79,4.53-.87,4.42-.98,4.3-1.02,4.15-1.09,4.04-1.17,3.85-1.25,3.66-1.32,3.55-1.36,3.32-1.43,3.18-1.47,2.95-1.55,2.76-1.59,2.53-1.66,2.35-1.66,2.12-1.7,1.89-1.78,1.71-1.78,1.43-1.81,1.18-1.87,.98-1.85,.72-1.86,.5-1.9,.27-1.9v-1.91l-.26-1.91Zm-35.26,30.15c-.08,.03-.17,.03-.25,0-.08-.03-.14-.1-.17-.18l-.68-1.67s-.02-.08-.02-.12c0-.13,.08-.25,.2-.3l2.84-1.16,.93,2.27-2.84,1.16Zm3.41-1.31s0-.09-.02-.13l-.94-2.2c-.02-.05-.06-.09-.1-.12l.27-.36,.11-.15,.49-.64,.34-.41,.27-.38,.54-.67,2.38,5.15-3.34-.08Zm16.67-8.1l-.61,.53-.38,.26-.19,.15-.53,.41-.68,.53-.08,.04-.3,.26-.91,.64-.23,.15-.11,.08-1.1,.71-.53,.38-.68,.41-1.02,.64-.27,.15-1.06,.6-.19,.11-.3,.15-1.1,.64-.76,.37-.3,.15-.27,.15-.19,.07-.89,.47h0l-2.51-5.43h0l.97-.51,.46-.26,.08-.04,.99-.53,.76-.41,.27-.15,.49-.26,.87-.53,.49-.3,.08-.04,.99-.6,.34-.23,1.1-.75,.15-.07,1.21-.9h.04l1.1-.86,.15-.11,.42-.34,.53-.42,3.9,4.54-.17,.14Zm1.38-2.91l-.73,1.96-.1,.27-3.71-4.32,1.98-.57,1.12-.32,1.72,2.31-.02,.02-.27,.65Zm7.13-13.3l-.19,1.18-.3,1.16-.34,1.17-.45,1.16-.52,1.12-.61,1.17-.67,1.08-.79,1.14-.83,1.09-.91,1.1-.82,.85-1.73-2.32,.7-.79,.83-1.02,.76-1.02,.69-1.03,.6-1.02,.49-1.02,.42-1.06,.34-1.01,.31-1.04,.15-1,.11-1.03,.04-1.01-.04-1.04-.15-.97-.19-1.04-.3-1.03-.38-1.02-.45-1.06-.53-1.03-.61-1.02-.71-1.01-.79-1.02-.87-1.02-.94-1.02-1.03-1.03-1.09-.97-.41-.35c-5.89-4.8-30.1-21.24-88.84-24.68l2.27,.02,5.09,.11,5.09,.19,5.09,.3,5.02,.38,4.65,.43c24.35,3.24,39.81,8.16,49.22,12.3l.03-.06,.35,.16,1.77,.87,.29,.15c7.68,3.67,10.41,6.48,10.41,6.48l1.24,1.02,1.21,1.05,1.09,1.02,1.06,1.06,.94,1.09,.9,1.09,.83,1.1,.71,1.12,.68,1.1,.56,1.16,.49,1.13,.41,1.15,.34,1.18,.22,1.16,.15,1.2,.07,1.15v1.21l-.11,1.16Z"></path><path class="cls-2" d="M227.07,38.74l-.15-1.2-.22-1.16-.34-1.18-.41-1.15-.49-1.13-.56-1.16-.68-1.1-.71-1.12-.83-1.1-.9-1.09-.94-1.09-1.06-1.06-1.09-1.02-1.21-1.05-1.24-1.02s-2.73-2.81-10.41-6.48l-.29-.15-1.77-.87-.35-.16-.03,.06c-9.4-4.14-24.87-9.06-49.22-12.3l-4.65-.43-5.02-.38-5.09-.3-5.09-.19-5.09-.11-2.27-.02c58.74,3.45,82.95,19.88,88.84,24.68l.41,.35,1.09,.97,1.03,1.03,.94,1.02,.87,1.02,.79,1.02,.71,1.01,.61,1.02,.53,1.03,.45,1.06,.38,1.02,.3,1.03,.19,1.04,.15,.97,.04,1.04-.04,1.01-.11,1.03-.15,1-.31,1.04-.34,1.01-.42,1.06-.49,1.02-.6,1.02-.69,1.03-.76,1.02-.83,1.02-.7,.79,1.73,2.32,.82-.85,.91-1.1,.83-1.09,.79-1.14,.67-1.08,.61-1.17,.52-1.12,.45-1.16,.34-1.17,.3-1.16,.19-1.18,.11-1.16v-1.21l-.07-1.15Z"></path><polygon class="cls-2" points="218.47 52.58 217.34 52.9 215.36 53.47 219.07 57.79 219.17 57.52 219.9 55.56 220.17 54.91 220.19 54.89 218.47 52.58"></polygon><polygon class="cls-2" points="214.27 54.21 213.85 54.55 213.7 54.66 212.6 55.52 212.56 55.52 211.35 56.43 211.2 56.5 210.1 57.25 209.75 57.48 208.77 58.08 208.69 58.12 208.2 58.42 207.33 58.94 206.83 59.21 206.57 59.36 205.81 59.77 204.82 60.29 204.75 60.33 204.29 60.59 203.32 61.09 203.33 61.1 205.84 66.52 205.84 66.53 206.73 66.05 206.92 65.98 207.18 65.83 207.48 65.68 208.24 65.3 209.34 64.67 209.65 64.52 209.84 64.4 210.9 63.8 211.16 63.65 212.19 63.01 212.87 62.6 213.4 62.22 214.5 61.51 214.62 61.44 214.84 61.29 215.76 60.65 216.06 60.38 216.14 60.35 216.82 59.82 217.35 59.41 217.54 59.26 217.92 58.99 218.53 58.47 218.7 58.33 214.8 53.79 214.27 54.21"></polygon><path class="cls-2" d="M202.28,62.17l-.27,.38-.34,.41-.49,.64-.11,.15-.27,.36s.08,.07,.1,.12l.94,2.2s.02,.09,.02,.13l3.34,.08-2.38-5.15-.54,.67Z"></path><path class="cls-2" d="M197.51,65.6c-.13,.05-.2,.17-.2,.3,0,.04,0,.08,.02,.12l.68,1.67c.03,.08,.09,.14,.17,.18,.08,.03,.17,.03,.25,0l2.84-1.16-.93-2.27-2.84,1.16Z"></path></g><g><path class="cls-8" d="M38.91,21.48h5.78l7.55,11.09v-11.09h5.84v20.04h-5.84l-7.51-11v11h-5.82V21.48Z"></path><path class="cls-8" d="M61.34,34.31c0-2.21,.75-4.04,2.24-5.48,1.49-1.44,3.51-2.15,6.06-2.15,2.91,0,5.1,.84,6.59,2.53,1.19,1.36,1.79,3.03,1.79,5.02,0,2.23-.74,4.06-2.22,5.49-1.48,1.43-3.53,2.14-6.15,2.14-2.33,0-4.22-.59-5.66-1.78-1.77-1.47-2.65-3.39-2.65-5.77Zm5.58-.01c0,1.29,.26,2.25,.79,2.87,.52,.62,1.18,.93,1.98,.93s1.46-.31,1.98-.92c.51-.61,.77-1.59,.77-2.94,0-1.26-.26-2.19-.78-2.81s-1.16-.92-1.93-.92c-.81,0-1.48,.31-2.01,.94-.53,.62-.79,1.57-.79,2.85Z"></path><path class="cls-8" d="M79.31,27.01h5.79l2.82,9.2,2.92-9.2h5.62l-6.17,14.52h-4.94l-6.04-14.52Z"></path><path class="cls-8" d="M114.2,35.65h-11.16c.1,.89,.34,1.56,.72,2,.54,.63,1.24,.94,2.11,.94,.55,0,1.07-.14,1.56-.41,.3-.17,.62-.48,.97-.92l5.48,.51c-.84,1.46-1.85,2.5-3.04,3.14-1.19,.63-2.88,.95-5.1,.95-1.92,0-3.44-.27-4.54-.81-1.1-.54-2.02-1.4-2.74-2.58s-1.09-2.57-1.09-4.16c0-2.27,.73-4.11,2.18-5.51,1.45-1.4,3.46-2.11,6.02-2.11,2.08,0,3.72,.31,4.92,.94s2.12,1.54,2.75,2.73,.94,2.75,.94,4.66v.63Zm-5.66-2.67c-.11-1.08-.4-1.85-.87-2.31-.47-.46-1.09-.7-1.85-.7-.88,0-1.59,.35-2.12,1.05-.34,.44-.55,1.09-.64,1.96h5.48Z"></path><path class="cls-8" d="M116.95,21.48h5.58v20.04h-5.58V21.48Z"></path><path class="cls-5" d="M140.27,33.32l5.43,1.64c-.36,1.52-.94,2.79-1.72,3.81-.78,1.02-1.76,1.79-2.92,2.31s-2.64,.78-4.44,.78c-2.18,0-3.96-.32-5.34-.95s-2.57-1.75-3.58-3.34c-1-1.59-1.5-3.63-1.5-6.12,0-3.32,.88-5.86,2.65-7.64,1.76-1.78,4.26-2.67,7.49-2.67,2.52,0,4.51,.51,5.95,1.53,1.44,1.02,2.52,2.59,3.22,4.7l-5.47,1.22c-.19-.61-.39-1.06-.6-1.34-.35-.47-.77-.84-1.27-1.09-.5-.25-1.06-.38-1.68-.38-1.4,0-2.48,.56-3.23,1.69-.57,.84-.85,2.15-.85,3.95,0,2.22,.34,3.74,1.01,4.57,.67,.82,1.62,1.24,2.84,1.24s2.08-.33,2.69-1c.61-.67,1.05-1.63,1.32-2.9Z"></path><path class="cls-5" d="M153.75,31.71l-5.32-.56c.2-.93,.49-1.66,.87-2.19,.38-.53,.92-1,1.63-1.39,.51-.28,1.21-.5,2.11-.66,.89-.16,1.86-.23,2.9-.23,1.67,0,3.01,.09,4.02,.28s1.85,.58,2.53,1.17c.47,.41,.85,.99,1.12,1.74s.41,1.47,.41,2.15v6.41c0,.68,.04,1.22,.13,1.61,.09,.39,.28,.88,.57,1.48h-5.22c-.21-.37-.35-.66-.41-.85-.06-.2-.13-.5-.19-.92-.73,.7-1.45,1.2-2.17,1.5-.98,.4-2.13,.6-3.43,.6-1.73,0-3.05-.4-3.94-1.2-.9-.8-1.35-1.79-1.35-2.97,0-1.1,.32-2.01,.97-2.72,.65-.71,1.84-1.24,3.58-1.59,2.09-.42,3.44-.71,4.06-.88,.62-.17,1.28-.39,1.97-.66,0-.68-.14-1.16-.42-1.44-.28-.27-.78-.41-1.49-.41-.91,0-1.6,.15-2.05,.44-.36,.23-.64,.66-.86,1.29Zm4.83,2.93c-.77,.27-1.56,.51-2.39,.72-1.13,.3-1.85,.6-2.15,.89-.31,.3-.46,.64-.46,1.03,0,.44,.15,.79,.46,1.07,.31,.28,.75,.42,1.35,.42s1.2-.15,1.73-.45,.91-.67,1.13-1.1c.22-.43,.33-1,.33-1.69v-.89Z"></path><path class="cls-5" d="M174.2,21.48v5.52h3.06v4.07h-3.06v5.14c0,.62,.06,1.03,.18,1.23,.18,.31,.5,.46,.96,.46,.41,0,.98-.12,1.72-.35l.41,3.84c-1.38,.3-2.66,.45-3.86,.45-1.39,0-2.41-.18-3.06-.53-.66-.36-1.14-.89-1.46-1.62s-.47-1.9-.47-3.52v-5.11h-2.05v-4.07h2.05v-2.67l5.58-2.86Z"></path><path class="cls-5" d="M180.03,21.48h5.56v7.38c.76-.78,1.51-1.34,2.26-1.68s1.63-.51,2.65-.51c1.51,0,2.71,.46,3.58,1.38s1.31,2.33,1.31,4.24v9.23h-5.59v-7.98c0-.91-.17-1.56-.51-1.93s-.81-.57-1.42-.57c-.67,0-1.22,.25-1.64,.77s-.63,1.43-.63,2.75v6.97h-5.56V21.48Z"></path></g></g></svg> 