<?xml version="1.0" encoding="UTF-8"?> <svg xmlns="http://www.w3.org/2000/svg" id="Layer_2" viewBox="0 0 420.64 130.93"><defs><style>.cls-1{fill:#65665d;}.cls-2{fill:#8bc540;}.cls-3{fill:#065da9;}</style></defs><g id="Layer_1-2"><path class="cls-1" d="M338.72,21.39l-4.52,.03-4.52,.03,.02,25.15c0,13.83,.06,25.19,.11,25.24,.05,.05,.8,.3,1.65,.56,3.93,1.18,7.32,1.76,11.58,1.97,.95,.05,1.88,.09,2.07,.1,.9,.04,5-.24,6.36-.44,6.94-1.03,12.56-3.95,15.83-8.23,2.32-3.05,3.48-6.18,3.8-10.25,.63-8.2-3.24-15.3-10.24-18.77-3.29-1.63-6.93-2.34-11.03-2.13-2.29,.11-3.49,.31-5.12,.83-1.25,.4-3.3,1.22-4.32,1.74-.98,.49-1.29,.57-1.5,.36-.15-.15-.17-1.21-.17-8.17v-8Zm61.73,13.22c-3.98,0-7.03,.6-10.23,2.03-4.95,2.22-8.69,6.27-10.34,11.22-1.25,3.73-1.3,8.24-.14,12.14,2.48,8.35,10.21,13.9,20.03,14.41,2.08,.11,6.5-.18,8.74-.56,3.42-.59,6.84-1.79,9.54-3.35,1.84-1.06,1.64-.52,1.64-4.51,0-1.89-.03-3.47-.07-3.51-.04-.04-.79,.29-1.66,.73-4.86,2.43-8.48,3.49-13.15,3.82-3.7,.27-7.44-.4-9.86-1.76-3.32-1.86-5.37-4.56-6.41-8.42-.33-1.24-.36-1.65-.1-1.75,.1-.04,7.33-.07,16.07-.07h15.88v-1.14c0-5.41-1.8-10.28-5.04-13.63-2.06-2.13-4.14-3.44-7.06-4.44-2.43-.84-4.76-1.2-7.82-1.21m-122.32,.61v12.41c.02,9.45,.06,12.73,.18,13.74,.45,3.95,1.56,6.55,3.73,8.74,2.46,2.48,5.72,3.91,9.8,4.27,1.72,.15,3.76,0,5.58-.3,2.48-.5,4.84-1.59,8.2-3.8,.71-.47,1.32-.85,1.34-.85,.03,0,.14,.08,.24,.18,.16,.16,.18,.48,.17,2.14v1.95c2.99,0,5.99,0,8.99-.01V35.28h-8.99v13.71c0,10.68-.03,13.77-.14,13.99-.18,.36-2.1,1.98-3.41,2.87-2.56,1.75-4.91,2.55-7.5,2.55-2.43,0-4.41-.67-6.18-2.1-1.33-1.07-2.17-2.49-2.6-4.37-.24-1.05-.25-1.33-.31-13.86l-.06-12.79c-3.02-.02-6.03-.04-9.04-.06m122.14,5.95c1.54,0,2.19,.05,3.05,.23,3.37,.72,5.55,2.33,6.92,5.1,.35,.71,.6,1.61,.8,2.82,.11,.72,.11,.82-.07,.95-.16,.12-2.45,.15-11.16,.15-9.49,0-10.98-.02-11.1-.17-.19-.22-.07-.9,.36-2.09,1.01-2.82,3.23-5.04,6.14-6.17,1.61-.62,2.86-.83,5.07-.83m-51.43,.69c3.34,0,5.83,.8,8.26,2.63,2.45,1.85,4.03,4.68,4.47,8.08,.22,1.65,.22,2.02,0,3.66-.46,3.54-2.19,6.44-4.93,8.27-1.86,1.25-3.46,1.91-5.79,2.42-.94,.2-1.6,.25-3.9,.28-1.52,.02-3.13-.01-3.57-.08-.97-.13-3.25-.63-4.01-.87l-.55-.17v-20.57l1.24-.81c1.59-1.04,3.03-1.75,4.41-2.19,1.68-.54,2.43-.65,4.38-.64"></path><path class="cls-1" d="M115.86,74.55c-4.39-.57-7.53-1.4-11.4-3.01l-1.38-.57-.03-4.28-.03-4.28,.29,.19c1.14,.75,3.95,2.2,5.64,2.92,5.86,2.48,11.69,2.55,14.26,.17,.67-.62,1.12-1.49,1.12-2.15,0-1.06-.97-2.38-2.52-3.42-.88-.59-3.92-2.12-7.84-3.94-5.85-2.72-9.26-5.77-10.47-9.35-.73-2.17-.47-4.76,.68-6.64,1.99-3.29,5.68-5.06,11.63-5.6,4.49-.41,8.71,.19,13.44,1.9,.8,.29,1.75,.67,2.1,.84l.65,.31,.03,3.89c.02,2.14,0,3.89-.03,3.89s-.85-.39-1.8-.87c-3.82-1.91-6.14-2.65-9.56-3.05-1.42-.17-3.71-.08-4.56,.18-1.55,.47-2.51,1.16-2.86,2.08-.28,.74-.18,1.65,.25,2.27,.67,.96,3.13,2.41,6.96,4.13,2.12,.95,5.97,2.91,6.91,3.53,1.63,1.07,3.69,2.94,4.72,4.32,1.39,1.84,2.07,3.73,2.07,5.79,0,3.52-2.02,6.48-5.87,8.61-1.5,.83-4.27,1.65-6.89,2.04-1.43,.22-4.37,.3-5.49,.15"></path><path class="cls-1" d="M66.62,74.68c-3.59-.32-6.71-2.04-8.46-4.66-1.09-1.64-1.65-3.47-1.66-5.37-.01-4.42,2.87-7.74,8.9-10.26,2.17-.9,4.02-1.47,9.41-2.85,2.5-.64,4.67-1.22,4.81-1.27,.25-.1,.26-.17,.25-1.35,0-2.66-.37-3.88-1.47-4.88-1.53-1.4-3.85-2.03-7.03-1.92-2.68,.1-4.61,.59-7.1,1.81-1.93,.95-4.39,2.54-5.91,3.84-.71,.6-.71,.58-.71-4.19v-4.25l.6-.48c1.73-1.38,4.35-2.81,6.38-3.48,2.72-.9,4.74-1.15,8.71-1.08,2.58,.05,3.08,.09,4.46,.37,5.23,1.06,8.9,3.35,10.51,6.57,.38,.76,.83,2.21,1.08,3.47,.18,.91,.21,2.17,.27,11.85,.05,8.46,.1,10.88,.21,11.08,.49,.86,1.96,.66,4.98-.66,.46-.2,.9-.33,.99-.3,.13,.05,.16,.51,.16,2.49v2.42l-.37,.23c-.85,.53-3.33,1.72-4.35,2.1-1.61,.6-2.7,.8-4.44,.8-1.81,0-2.9-.21-4.09-.79-1.03-.51-1.98-1.43-2.46-2.38-.18-.36-.38-.65-.45-.65s-.54,.27-1.05,.6c-2.11,1.35-4.63,2.39-6.88,2.85-1.05,.21-3.64,.49-4.14,.45-.1,0-.62-.05-1.17-.1m8.01-6.62c1.45-.31,2.81-.93,4.39-1.99l.81-.54,.03-5.23c.02-2.88-.01-5.27-.06-5.31-.08-.07-4.69,1.16-6.25,1.67-1.04,.34-2.77,1.1-3.58,1.57-2.75,1.6-3.9,3.29-3.77,5.53,.12,2.06,1.59,3.61,4.03,4.25,1.05,.27,3.24,.3,4.4,.06m86.59,6.61c-6.11-.39-11.38-2.35-15.28-5.69-3.24-2.77-5.33-6.35-6.19-10.58-.35-1.74-.38-5.59-.05-7.45,.77-4.3,2.46-7.62,5.3-10.42,1.54-1.52,2.97-2.52,5.08-3.57,2.05-1.02,3.93-1.65,6.25-2.12,2.6-.52,3.87-.62,7.35-.56,3.23,.06,3.75,.12,6.25,.72,1.34,.32,5.63,1.73,5.87,1.93,.11,.09,.14,1.11,.14,4.37,0,4.08,0,4.25-.22,4.25-.12,0-.7-.23-1.3-.5-4.31-2-7.15-2.79-10.37-2.92-4.7-.18-8.47,1.1-11.2,3.81-1.84,1.82-2.86,3.95-3.26,6.78-.16,1.18-.17,1.56-.06,2.6,.25,2.23,.8,3.8,1.9,5.46,.71,1.07,2.21,2.58,3.25,3.27,1.7,1.14,4.15,2.1,6.46,2.53,1.54,.28,5.67,.29,7.39,.01,2.1-.34,3.84-.78,5.9-1.48,1.11-.38,2.16-.72,2.33-.75l.32-.06v7.84l-.63,.24c-.96,.36-4,1.22-5.49,1.55-1.94,.43-3.45,.64-5.61,.76-2.09,.12-2.08,.12-4.14,0m44.18,0c-8.76-.56-15.94-4.23-19.74-10.08-2.19-3.37-3.27-7.61-2.93-11.51,.23-2.61,.74-4.54,1.79-6.72,2.49-5.2,7.45-9.1,13.92-10.96,1.55-.44,3.78-.87,5.44-1.05,2.02-.22,7.21-.09,9.01,.22,4.24,.73,7.68,2.04,10.72,4.06,4.65,3.1,7.52,7.43,8.42,12.71,.22,1.31,.25,1.78,.19,3.69-.05,1.81-.11,2.41-.36,3.46-.39,1.66-.69,2.54-1.27,3.8-1.9,4.07-5.11,7.24-9.63,9.51-4.28,2.15-10.1,3.22-15.56,2.87m5.89-8.29c3.91-.84,7.19-2.88,9.01-5.61,2.35-3.51,2.55-8.05,.52-11.76-2.52-4.61-8.36-7.29-14.83-6.8-4.18,.31-7.43,1.67-9.92,4.13-2.01,1.99-3.12,4.48-3.29,7.36-.39,6.62,4.15,11.64,11.65,12.85,1.6,.26,5.28,.17,6.85-.17"></path><path class="cls-3" d="M249.53,0c-1.09,1.63-2.23,3.39-3.58,5.07,.53,.3,.79,.55,1.31,.87,6.81,4.13,12.33,10.59,14.56,18.33,1.11,3.56,1.44,7.35,1.03,11.04-2.36,0-2.73,0-5.09,0,.73-6.69-1.75-13.82-5.99-18.94-2.68-2.82-5.95-5.64-8.9-7.16-1.21,1.68-2.57,3.56-3.55,5.04,.46,.32,.93,.62,1.4,.94,3.36,2.29,6.43,5.29,8.12,9.03,1.52,3.45,2.24,7.34,1.59,11.06-1.33,0-2.64,.01-3.91,.02-2.24,2.38-3.05,3.19-7.03,6.78,2.75-.01,5.47,0,8.22-.01-.65,1.07-1.33,2.09-2.02,3.12-2.1,3.13-4.08,6.4-5.06,10.07-.95,3.19-1.81,6.43-1.93,9.77-.51,8.83,3.03,17.6,8.86,24.14,3.27,3.72,7.25,6.85,11.57,9.26,2.04-2.84,2.15-2.99,3.59-5.01-.98-.57-1.77-1.12-2.72-1.84-6.34-4.26-11.36-10.7-13.28-18.16-1.65-5.9-1.17-12.31,1.21-17.93,1.32-3.39,3.44-6.38,5.38-9.45,.8-1.28,1.51-2.59,2.13-3.97,2.83,.02,3.05-.03,5.78,0-1.27,3.45-3.45,6.81-5.44,9.87-2.28,3.55-3.93,7.51-4.74,11.65-.7,6.4,1.52,12.87,5.44,17.89,2.41,3.13,5.84,5.77,9.3,7.67,1.22-1.7,1.84-2.67,3.61-5.03-.62-.43-.89-.49-1.33-.81-3.25-2.21-6.18-5.06-7.94-8.61-1.94-4.16-2.72-9.04-1.29-13.48,.82-2.88,2.52-5.36,4.18-7.81,2.12-3.16,4.74-7.62,5.73-11.33,2.35,0,1.81,0,3.16,0,0-2.27,0-4.5,0-6.77h-1.97c.08-.73,.14-1.47,.16-2.21,.39-8.68-3.09-17.24-8.8-23.68-3.28-3.76-7.26-6.91-11.61-9.34-.13-.06-.03-.01-.14-.08"></path><path class="cls-1" d="M0,15.84c.49,.99,1.43,2.92,5.01,10.27,6.76,13.75,13.43,27.37,20.1,40.89,1.25,2.53,2.6,5.29,3,6.13l.73,1.53h1.3c.16,0,.32,0,.47,0h.05c.15,0,.3,0,.47,0h1.3l.73-1.53c.4-.84,1.76-3.6,3.01-6.13,6.83-13.89,14.01-28.48,20.1-40.89,3.59-7.28,5.06-10.15,5.06-10.27-3.72,0-6.8,0-10.65,.02-.99,1.95-1.98,3.95-2.75,5.49-5.33,10.68-9.91,19.85-14.8,29.65-1.77,3.55-2.23,4.47-2.48,4.99-.3-.57-.71-1.39-2.54-5.06-.81-1.62-1.9-3.8-2.44-4.9-4.28-8.58-8.8-17.44-12.65-25.2-.98-1.96-1.92-3.98-2.1-4.33l-.31-.63c-3.36-.02-7.52-.02-10.59-.02"></path><path class="cls-1" d="M195.71,120.65l-2.44,4.77c-.54,1.12-2.53,.33-1.99-.88l9.11-17.95c.18-.39,.6-.57,1-.57s.75,.18,.97,.57l9.08,17.86c.78,1.3-1.45,2.05-2.02,.87l-2.35-4.68h-11.34Zm5.67-11.4l-4.77,9.5h9.5l-4.74-9.5Z"></path><path class="cls-3" d="M234.77,124.96c-1.45,.66-3.08,1.09-4.52,1.09-5.16,0-9.8-4.22-9.8-10.2,0-4.95,3.53-8.87,8.17-9.59,3.53-.48,6.61,.39,8.99,2.9,.91,1.03-.72,2.26-1.57,1.36-2.05-2.17-4.43-2.5-7.09-2.2-3.71,.57-6.33,3.2-6.33,7.57s3.53,8.08,7.69,8.08c1.12,0,2.35-.3,3.5-.87,.94-.48,1.84-1.21,2.47-2.02,.69-1.03,2.53,.09,1.75,1.21-.81,1.15-1.96,2.05-3.26,2.68Z"></path><path class="cls-3" d="M240.04,112.93c0-1.16,1.96-1.18,1.96-.03v12.12c0,1.18-1.96,1.16-1.96,0v-12.09Z"></path><path class="cls-3" d="M246.75,114.27c.86-1.8,2.47-2.28,4-2.28,.62,0,1.02,.32,1.02,.94s-.4,.91-1.02,.91c-2.77,0-3.95,2.2-3.95,4.92v6.07c0,.56-.46,.94-.97,.94-.59,0-.99-.38-.99-.94v-11.9c0-1.18,1.91-1.29,1.91,0v1.34Z"></path><path class="cls-3" d="M260.16,112.04c1.21,0,1.21,1.69,0,1.69h-2.93v7.25c0,1.53,.24,3.14,2.07,3.14,.4,0,.99-.13,1.26-.3,1.13-.64,2.01,.94,.81,1.61-.67,.38-1.34,.46-2.07,.46-3.22,0-4-2.36-4-4.92v-7.25h-1.77c-1.26,0-1.18-1.69,0-1.69h1.77v-3.12c0-1.29,1.93-1.26,1.93,0v3.12h2.93Z"></path><path class="cls-3" d="M271.55,112.1c3.04,.83,4.92,3.3,4.97,6.74v-.03c.05,.59-.21,1.24-1.32,1.24h-10.61c.35,2.2,2.23,4.03,4.92,4.03,1.24,0,2.53-.32,3.57-1.13,.94-.86,2.34,.24,1.29,1.32-1.24,1.16-3.04,1.64-4.78,1.61-2.1,0-4.19-.81-5.45-2.39-2.9-3.81-1.64-9.99,3.36-11.39,1.26-.38,2.71-.35,4.03,0h.03Zm-7.04,6.31h10.13c-.19-2.28-1.59-4.03-3.68-4.57h.03c-.89-.24-1.99-.24-2.9,.03-2.15,.56-3.41,2.36-3.57,4.54Z"></path><path class="cls-3" d="M285.27,113.47c-2.93,0-4.92,2.39-4.92,5.45,0,1.21,.35,2.58,1.16,3.55,.94,1.16,2.42,1.77,3.87,1.77s2.98-.48,3.92-1.77c.67-.91,2.28,.13,1.37,1.18-1.32,1.61-3.33,2.39-5.32,2.39s-4.06-.83-5.4-2.39c-1.13-1.4-1.69-3.3-1.59-5.27,.21-3.98,3.04-6.69,7.12-6.69,1.93,0,3.49,.64,4.94,2.28,.78,.89-.67,2.01-1.42,1.13-1.02-1.18-2.39-1.64-3.73-1.64Z"></path><path class="cls-1" d="M314.72,124.96c-1.45,.66-3.08,1.09-4.52,1.09-5.16,0-9.8-4.22-9.8-10.2,0-4.95,3.53-8.87,8.17-9.59,3.53-.48,6.61,.39,8.99,2.9,.9,1.03-.72,2.26-1.57,1.36-2.05-2.17-4.43-2.5-7.09-2.2-3.71,.57-6.33,3.2-6.33,7.57s3.53,8.08,7.69,8.08c1.12,0,2.35-.3,3.5-.87,.93-.48,1.84-1.21,2.47-2.02,.69-1.03,2.53,.09,1.75,1.21-.81,1.15-1.96,2.05-3.26,2.68Z"></path><path class="cls-1" d="M321.34,123.54c-1.21-1.42-1.72-3.14-1.64-5.16,.27-2.98,2.01-5.48,4.97-6.31,.64-.19,1.37-.24,2.04-.24s1.29,.05,1.99,.24c2.93,.83,4.76,3.3,5,6.31,.11,2.02-.43,3.73-1.61,5.16-1.32,1.59-3.25,2.42-5.37,2.42s-4.06-.83-5.37-2.42Zm5.35-9.89c-.51,0-1.02,.08-1.42,.19-2.26,.59-3.57,2.69-3.57,5.1,0,1.21,.38,2.47,1.18,3.41,.94,1.13,2.36,1.77,3.84,1.77s2.93-.7,3.87-1.77c.75-.91,1.18-2.2,1.18-3.36,0-2.44-1.32-4.57-3.6-5.16-.43-.11-.97-.19-1.48-.19Z"></path><path class="cls-1" d="M357.6,117.82c-.05-2.31-1.91-3.98-4.16-3.98-2.82,0-5.05,2.1-5.05,5.18v5.91c0,.59-.4,.94-.99,.94s-.99-.35-.99-.94v-6.66c0-1.53-.62-3.01-1.85-3.79-.7-.43-1.48-.62-2.31-.62-2.63,0-5.02,2.01-5.02,5.02v6.04c0,1.24-1.96,1.21-1.96,0v-12.01c0-.51,.43-.94,.97-.94,.59,0,.94,.43,.94,.94v1.85c1.07-1.93,2.98-2.79,5.05-2.79,2.34,0,4.65,1.16,5.45,3.55,.97-2.39,3.3-3.55,5.7-3.55,3.09,0,6.21,2.07,6.21,5.75v7.2c0,.59-.4,.94-.99,.94s-.97-.35-.97-.94v-7.12Z"></path><path class="cls-1" d="M368.4,126.01c-1.8,0-3.55-.73-4.35-2.15v5.78c0,1.24-1.96,1.24-1.96,0v-16.68c0-.59,.38-.94,.99-.94s.91,.35,.91,.94v1.26c.91-1.67,2.79-2.36,4.41-2.36,.83,0,1.75,.16,2.58,.51l-.03-.03c2.93,1.21,4.41,3.87,4.32,6.98-.11,3.81-2.85,6.69-6.88,6.69Zm-4.35-8.11v2.12c0,2.36,1.83,4.03,4.27,4.14,1.91,0,3.81-1.02,4.59-2.87,.21-.56,.38-1.29,.4-1.99,.03-1.75-.54-3.36-1.99-4.57-.78-.62-1.75-.94-2.77-1.02-2.44,0-4.51,1.56-4.51,4.19Z"></path><path class="cls-1" d="M380.79,112.39c.89-.4,1.85-.54,2.87-.51,1.53,.03,3.28,.51,4.24,2.1v-1.02c0-.56,.35-.97,.97-.97s.99,.4,.99,.97v11.93c0,.59-.4,.97-.99,.97s-.97-.38-.97-.97v-1.29c-.78,1.56-2.77,2.45-4.35,2.45-1.29,0-2.74-.35-3.87-1.16-2.04-1.4-3.09-3.68-3.01-6.31,.05-2.71,1.56-5.21,4.14-6.21l-.03,.03Zm7.12,7.6v-2.12c0-2.66-1.85-4.03-4.27-4.14-1.91-.03-3.84,.99-4.59,2.87-.24,.56-.38,1.29-.4,1.99-.05,1.75,.51,3.36,1.96,4.57,.81,.62,1.77,.94,2.77,1.02,2.47,0,4.41-1.5,4.54-4.19Z"></path><path class="cls-1" d="M403.65,117.82c0-2.47-1.99-4.19-4.16-4.19-2.61,0-5.05,2.15-5.05,5.08v6.23c0,.59-.35,.94-.97,.94s-1.02-.35-1.02-.94v-12.04c0-1.24,1.93-1.26,1.93,.03v1.67c.97-1.96,3.04-2.79,5.13-2.79,3.12,0,6.1,2.15,6.1,6.02v7.12c0,.59-.35,.94-.97,.94s-.99-.35-.99-.94v-7.12Z"></path><path class="cls-1" d="M406.6,113.2c-.48-1.07,1.29-1.99,1.83-.78l5.18,10.37,5.13-10.4c.48-1.05,2.26-.4,1.83,.73l-8.62,17.14c-.64,1.26-2.34,.59-1.83-.67l2.36-4.81-5.88-11.58Z"></path><circle class="cls-2" cx="241.04" cy="109.03" r="1.13"></circle></g></svg> 